<?xml version="1.0" encoding="UTF-8" standalone="no"?> <svg xmlns="http://www.w3.org/2000/svg" viewBox="0 0 64 54.61"><defs><style>.cls-1{fill:#35353d;}</style></defs><title>Asset 23</title><g id="Layer_2" data-name="Layer 2"><g id="Layer_1-2" data-name="Layer 1"><path class="cls-1" d="M32,0A32,32,0,0,0,9.39,54.61l3.76-3.76a26.67,26.67,0,1,1,37.7,0l3.76,3.76A32,32,0,0,0,32,0Z"/><path class="cls-1" d="M32,10.67a21.31,21.31,0,0,0-15.07,36.4l3.76-3.76a16,16,0,1,1,22.62,0l3.76,3.76A21.31,21.31,0,0,0,32,10.67Z"/><path class="cls-1" d="M32,21.33a10.68,10.68,0,0,0-7.55,18.22l3.79-3.79A5.19,5.19,0,0,1,26.67,32a5.33,5.33,0,0,1,10.66,0,5.19,5.19,0,0,1-1.57,3.76l3.79,3.79A10.68,10.68,0,0,0,32,21.33Z"/></g></g></svg>